<?xml version="1.0" encoding="UTF-8"?>
<svg id="Layer_1" data-name="Layer 1" xmlns="http://www.w3.org/2000/svg" viewBox="0 0 544.22 544.22">
  <path style="fill: #0a9ea5;" d="m272.11,0C2.1,0,0,121.83,0,272.11s2.1,272.11,272.11,272.11,272.11-121.83,272.11-272.11S542.12,0,272.11,0Zm-85.3,176.13c21.2-22.96,45.06-42.72,71.54-59.31,4.18-2.62,8.48-5.03,12.69-7.59.78-.48,1.34-.46,2.14,0,32.33,18.43,61,41.43,85.93,69.06,4.25,4.71,8.32,9.58,12.65,14.59-36.69,18.1-69.84,40.91-99.73,68.67-27.84-29.88-59.78-54.21-96.07-73.21,3.7-4.17,7.2-8.24,10.85-12.19Zm-12.77,222.81c-20.84-18.38-34.5-41.05-40.59-68.21-3.04-13.57-3.51-27.26-2.02-41.08,2.41-22.34,8.64-43.51,19.16-63.36,3.68-6.94,7.93-13.58,11.97-20.42,28.42,12.96,77.62,50.26,93.89,71.06-35.03,36.41-60.56,78.62-76.65,126.84-2.01-1.68-3.92-3.21-5.76-4.83Zm216.36-22.33c-12.32,17.54-28.45,30.86-47.22,41.01-24.74,13.37-51.23,18.98-79.29,17.48-22.42-1.2-43.5-7.1-63.29-17.67-.74-.4-1.47-.82-2.44-1.36,2.3-6.31,4.45-12.62,6.87-18.83,16.58-42.4,40.97-79.72,73.34-111.72,28.62-28.3,60.94-51.58,96.69-70.08,3.02-1.56,6.06-3.06,9.26-4.68,1.28,1.99,2.56,3.92,3.77,5.89,13.33,21.78,21.43,45.37,24.48,70.72,3.92,32.57-3.31,62.39-22.18,89.24Z"/>
</svg>