<?xml version="1.0" encoding="utf-8"?>
<!-- Generator: Adobe Illustrator 27.2.0, SVG Export Plug-In . SVG Version: 6.00 Build 0)  -->
<svg version="1.1" id="Layer_1" xmlns="http://www.w3.org/2000/svg" xmlns:xlink="http://www.w3.org/1999/xlink" x="0px" y="0px"
	 viewBox="0 0 283 326.5" style="enable-background:new 0 0 283 326.5;" xml:space="preserve">
<path d="M56.2,67.2c21.2-23,45.1-42.7,71.5-59.3c4.2-2.6,8.5-5,12.7-7.6c0.8-0.5,1.3-0.5,2.1,0c32.3,18.4,61,41.4,85.9,69.1
	c4.2,4.7,8.3,9.6,12.6,14.6c-36.7,18.1-69.8,40.9-99.7,68.7c-27.8-29.9-59.8-54.2-96.1-73.2C49,75.3,52.5,71.2,56.2,67.2L56.2,67.2z
	 M43.4,290.1C22.6,271.7,8.9,249,2.8,221.9c-3-13.6-3.5-27.3-2-41.1c2.4-22.3,8.6-43.5,19.2-63.4c3.7-6.9,7.9-13.6,12-20.4
	c28.4,13,77.6,50.3,93.9,71.1c-35,36.4-60.6,78.6-76.7,126.8C47.2,293.2,45.3,291.7,43.4,290.1L43.4,290.1z M259.8,267.7
	c-12.3,17.5-28.4,30.9-47.2,41c-24.7,13.4-51.2,19-79.3,17.5c-22.4-1.2-43.5-7.1-63.3-17.7c-0.7-0.4-1.5-0.8-2.4-1.4
	c2.3-6.3,4.4-12.6,6.9-18.8c16.6-42.4,41-79.7,73.3-111.7c28.6-28.3,60.9-51.6,96.7-70.1c3-1.6,6.1-3.1,9.3-4.7
	c1.3,2,2.6,3.9,3.8,5.9c13.3,21.8,21.4,45.4,24.5,70.7C285.9,211.1,278.6,240.9,259.8,267.7L259.8,267.7z"/>
</svg>
